<?xml version="1.0" encoding="UTF-8" standalone="no"?>
<svg
   version="1.1"
   id="Layer_1"
   x="0px"
   y="0px"
   width="100%"
   viewBox="0 0 2755 2755"
   enable-background="new 0 0 2755 2755"
   xml:space="preserve"
   xmlns="http://www.w3.org/2000/svg"
   xmlns:svg="http://www.w3.org/2000/svg"><defs
   id="defs17" />&#10;&#10;<path
   fill="#5D5D5D"
   opacity="1.000000"
   stroke="none"
   d=" M1664.131226,943.679382   C1682.138794,952.852783 1701.732788,954.544922 1721.414673,955.731689   C1723.692139,955.869019 1726.625977,956.136292 1728.209351,954.948608   C1737.260010,948.159851 1747.205444,950.525146 1757.093872,951.331543   C1762.712280,951.789795 1768.382202,951.623718 1773.999146,952.093811   C1781.014160,952.680847 1785.896851,949.563416 1790.329590,944.438110   C1803.614014,929.077759 1818.028687,914.614197 1830.404663,898.568298   C1847.069946,876.960938 1862.782349,854.345642 1872.913696,828.867920   C1878.380859,815.119019 1881.641846,800.111694 1883.447510,785.371826   C1886.644043,759.275635 1887.770020,732.932251 1890.137817,706.726196   C1892.372192,681.997131 1889.968506,657.459167 1887.653442,632.928650   C1885.565430,610.804810 1878.076294,590.092102 1869.690796,569.705566   C1854.323486,532.345703 1834.792847,497.120636 1814.161987,462.493652   C1807.867432,451.928955 1800.779541,441.828735 1793.866821,431.643494   C1789.672363,425.463654 1784.157104,421.427826 1776.767700,418.766815   C1766.810303,415.181091 1757.465210,409.803497 1748.043335,404.841797   C1730.649902,395.682190 1713.411377,386.228760 1696.071167,376.967316   C1680.578613,368.692749 1667.441284,357.685913 1656.186279,344.174622   C1646.669312,332.749695 1642.687866,319.972473 1644.029541,305.253204   C1645.256348,291.795197 1652.438110,283.543732 1666.036377,282.484467   C1675.603882,281.739197 1685.303833,282.647827 1694.942627,282.890961   C1697.523682,282.956024 1700.098022,283.288696 1705.104858,283.696350   C1702.037842,280.318390 1700.705322,278.212036 1698.824463,276.879913   C1683.020264,265.686462 1674.998413,249.124481 1668.901245,231.765747   C1661.862061,211.725037 1676.132080,194.306885 1697.550049,196.801712   C1708.679932,198.098145 1719.782471,201.171173 1730.422119,204.825439   C1755.663330,213.494736 1779.533203,224.941086 1802.822632,238.314926   C1822.854004,249.817917 1840.727295,264.187714 1860.300659,276.159302   C1877.973633,286.968597 1895.868042,297.245544 1915.493652,304.079437   C1931.392456,309.615631 1943.950073,319.789337 1955.203491,331.834778   C1972.470947,350.317169 1990.258423,368.369507 2006.587280,387.652679   C2017.071045,400.033234 2025.876709,413.957611 2034.468018,427.790375   C2049.036621,451.246979 2063.400391,474.866913 2076.822998,498.989746   C2093.001465,528.064758 2109.647705,557.058533 2119.840332,588.958313   C2124.387939,603.191284 2127.511475,617.923950 2130.568848,632.578491   C2135.669434,657.030273 2141.312012,681.451050 2144.650879,706.165283   C2147.941162,730.521362 2150.130615,755.226746 2150.113525,779.776978   C2150.093262,808.695129 2140.568115,836.021301 2131.029541,863.137268   C2120.181396,893.976868 2106.891357,923.775574 2091.955811,952.734131   C2074.554443,986.473755 2056.400635,1020.072266 2028.590088,1046.773438   C2012.787476,1061.945679 2015.531372,1058.699341 2021.525879,1078.361084   C2035.364746,1123.751221 2046.169800,1169.774170 2049.229004,1217.274536   C2049.994873,1229.169800 2048.908203,1241.183594 2048.694580,1253.143311   C2048.653320,1255.463501 2048.514160,1257.806519 2048.754883,1260.103760   C2054.141602,1311.468384 2060.154541,1362.775757 2064.805664,1414.206421   C2068.164795,1451.350952 2071.095459,1488.623657 2068.347900,1525.999146   C2067.937012,1531.587524 2066.330078,1537.078247 2065.541260,1542.651611   C2064.847900,1547.550415 2064.122559,1552.500122 2064.104492,1557.429932   C2063.982666,1590.764648 2062.925781,1624.039551 2058.042480,1657.072266   C2056.972168,1664.312744 2055.350342,1671.483765 2053.696045,1678.620361   C2052.873535,1682.169312 2052.205566,1686.190918 2050.084229,1688.925537   C2041.385742,1700.139282 2039.477295,1713.914062 2035.062988,1726.717041   C2029.933716,1741.593628 2023.941528,1756.073242 2015.173950,1769.152100   C2002.760986,1787.668823 1990.202026,1806.109009 1977.021118,1824.080078   C1970.957642,1832.347046 1964.185547,1840.629517 1956.107666,1846.761597   C1943.167358,1856.584839 1929.459473,1865.620728 1913.334717,1870.065552   C1907.969360,1871.544312 1902.815063,1874.109375 1897.877075,1876.760620   C1877.561890,1887.667847 1855.553467,1893.824219 1832.958130,1895.311890   C1785.680542,1898.424438 1738.692627,1903.521606 1691.891357,1910.693359   C1687.960449,1911.295532 1683.841919,1912.091797 1679.987549,1911.546631   C1652.896484,1907.714355 1626.208740,1911.470703 1599.375977,1914.694092   C1538.171875,1922.046509 1476.890259,1929.104126 1415.127808,1928.920288   C1392.504272,1928.852905 1369.877075,1926.888916 1347.269043,1925.504028   C1311.684937,1923.323975 1276.144165,1919.823120 1240.532104,1918.875977   C1202.518188,1917.864990 1164.605591,1916.398926 1126.844727,1911.849609   C1122.148071,1911.283691 1117.763062,1911.110718 1113.419556,1913.972168   C1111.526001,1915.219727 1108.362305,1914.887939 1105.818726,1914.697021   C1103.534912,1914.525513 1101.232788,1913.763306 1099.071533,1912.921021   C1070.369019,1901.736206 1040.348022,1895.720703 1010.279175,1889.697632   C990.343811,1885.704468 970.956604,1879.758057 952.065735,1871.912109   C926.851562,1861.440063 900.890320,1852.743652 875.814941,1841.969727   C863.066772,1836.492554 851.555603,1828.136475 839.485046,1821.082153   C835.751099,1818.899902 832.089966,1816.578857 828.264771,1814.570190   C822.357056,1811.467773 816.635498,1808.577271 813.254944,1802.057251   C811.539551,1798.748657 807.579468,1796.557495 804.517212,1794.001221   C784.261292,1777.092407 764.883179,1759.346313 749.961914,1737.306519   C745.642578,1730.926514 741.667603,1724.620117 742.109131,1716.226562   C742.284424,1712.894531 740.134583,1709.282471 738.543091,1706.043701   C732.828064,1694.413208 727.823608,1682.295898 720.871704,1671.437378   C702.589172,1642.880981 700.856689,1610.493042 697.970825,1578.369263   C695.703674,1553.132568 695.315125,1527.894287 697.421692,1502.499756   C698.593750,1488.370850 695.995422,1473.934814 695.175903,1459.632690   C694.756592,1452.314575 694.578308,1444.982788 694.177490,1437.663330   C692.775757,1412.064087 690.467712,1386.480835 690.071289,1360.867065   C689.259827,1308.438843 692.276733,1256.236572 703.923523,1204.878784   C709.004944,1182.471191 714.514343,1160.160889 719.741211,1137.785889   C720.722595,1133.584839 721.453491,1129.307495 722.002136,1125.027344   C722.739990,1119.271729 720.609741,1114.718140 715.949402,1111.125977   C685.329285,1087.525146 663.246399,1056.683472 642.933228,1024.417114   C619.636902,987.412231 598.793274,949.105286 582.344788,908.504089   C569.408325,876.572021 563.329529,843.617126 564.239685,808.975830   C565.495422,761.184387 571.989868,714.028564 578.837769,666.874695   C581.829956,646.270874 589.426147,626.983398 597.278625,607.846497   C609.430908,578.230835 622.644958,549.118164 638.084534,521.032410   C642.731995,512.578491 646.654846,503.709778 650.624451,494.902527   C667.095520,458.358826 690.983276,426.784210 716.454224,396.258667   C718.588379,393.700989 720.695374,391.108551 722.989319,388.698242   C732.216736,379.002655 739.723633,368.460938 745.222412,355.936310   C755.962158,331.474396 774.688843,313.522339 796.354370,298.366150   C803.406311,293.432953 810.219055,288.003418 816.424744,282.053528   C824.292419,274.510101 832.928955,268.796875 843.407104,265.559021   C856.107483,261.634430 868.199463,255.471680 881.795654,254.956848   C888.759155,254.693192 895.778259,254.658005 902.714783,255.223785   C912.240356,256.000763 917.657715,261.920197 919.786255,270.934387   C922.959473,284.372559 922.554749,297.378754 914.720581,309.420685   C913.121155,311.879303 911.889709,314.577393 911.466736,318.776123   C916.238464,316.872284 921.074829,315.114685 925.770996,313.039856   C949.086304,302.739105 973.513428,298.642120 998.872253,300.024933   C1013.090576,300.800262 1022.700195,309.050110 1025.163086,322.964203   C1028.166748,339.934204 1025.691406,355.519226 1012.047363,367.779877   C995.949463,382.245483 980.362244,397.318787 963.721069,411.125122   C954.303711,418.938263 942.995483,424.427551 932.958069,431.553925   C926.245483,436.319763 919.571899,441.495880 914.098083,447.583069   C898.846436,464.543945 886.745056,483.863281 877.214905,504.445129   C862.520142,536.180847 848.164795,568.138123 835.361267,600.668884   C819.286865,641.510132 812.472290,683.983215 817.404053,728.086792   C821.776733,767.190857 826.660034,806.167480 835.723511,844.525696   C840.481506,864.662415 849.511963,882.613586 861.783508,899.159790   C876.279724,918.705688 890.470032,938.452637 908.502075,955.062500   C919.036499,964.766052 929.298584,974.775574 939.436340,984.894592   C943.531616,988.982300 948.067749,990.941284 953.750183,990.464661   C954.746460,990.381042 955.756287,990.401978 956.741394,990.252563   C992.937988,984.760620 1029.369629,980.899902 1065.196899,972.899536   C1112.734619,962.284363 1160.624023,954.724731 1209.608154,953.793518   C1259.890015,952.837585 1310.115723,949.214722 1360.387695,947.340332   C1384.684570,946.434387 1409.036255,946.487244 1433.352661,946.834717   C1446.340942,947.020264 1459.231201,946.947266 1472.229492,946.234314   C1507.488159,944.300476 1542.807007,943.464600 1579.751953,942.369080   C1586.279297,942.415894 1591.156738,942.287109 1596.034058,942.158264   C1617.396606,942.571228 1638.759033,942.984131 1661.556885,943.515259   C1663.371826,943.648804 1663.751465,943.664062 1664.131226,943.679382  M1275.110718,1609.961304   C1282.392212,1593.097656 1288.887207,1575.991577 1291.396484,1557.639893   C1293.111694,1545.094971 1294.929688,1532.563965 1296.593872,1520.012451   C1299.565063,1497.601318 1298.900635,1475.493896 1291.345337,1453.875610   C1288.379395,1445.389282 1285.866455,1436.734375 1283.437622,1428.074829   C1282.277588,1423.938599 1280.947876,1419.560791 1281.200806,1415.383545   C1281.605347,1408.700317 1279.841187,1402.853027 1276.764893,1397.233765   C1268.772461,1382.635132 1260.246582,1368.311646 1252.711182,1353.483154   C1240.971802,1330.381592 1224.303101,1311.632812 1203.543457,1296.543335   C1187.668213,1285.004150 1171.394653,1273.981934 1154.942383,1263.276489   C1137.558716,1251.964722 1119.005859,1242.594360 1098.967773,1237.197510   C1071.140015,1229.703003 1042.495728,1227.882690 1013.759583,1227.727173   C988.019470,1227.587891 969.077454,1238.609253 957.191345,1261.749023   C952.795776,1270.306274 947.485596,1278.394531 942.569275,1286.682983   C938.329529,1293.830566 933.751648,1300.797241 929.869019,1308.132812   C923.809998,1319.580078 918.480591,1331.415527 912.362305,1342.829224   C900.403442,1365.138184 891.495544,1388.649292 890.734741,1413.958496   C889.874573,1442.570435 891.428711,1471.255493 891.971313,1499.908081   C892.009033,1501.899292 892.270508,1503.899536 892.585876,1505.870361   C900.354004,1554.417603 920.693970,1596.476196 956.337097,1630.898926   C985.122986,1658.699097 1018.895508,1676.106201 1058.778564,1680.378662   C1076.630859,1682.291016 1094.693604,1683.150269 1112.646729,1682.982300   C1135.918579,1682.764893 1159.193604,1682.617920 1182.360107,1678.531494   C1224.314941,1671.130859 1253.049194,1646.434814 1275.110718,1609.961304  M1488.059326,1548.961914   C1491.528198,1557.972046 1494.558838,1567.181641 1498.553589,1575.952148   C1508.005493,1596.704224 1522.859985,1612.195801 1543.810425,1621.911255   C1551.890381,1625.658325 1559.596924,1630.471436 1566.869873,1635.647217   C1585.789551,1649.111694 1606.062744,1659.573975 1628.548706,1665.612183   C1639.164917,1668.463013 1649.616821,1672.146362 1660.385742,1674.145508   C1671.433716,1676.196411 1682.763184,1677.365601 1693.996460,1677.594849   C1704.212402,1677.803589 1714.416748,1674.837402 1724.736084,1677.682373   C1727.145508,1678.346558 1730.029663,1677.554321 1732.650635,1677.146362   C1762.652222,1672.474121 1788.788208,1658.771362 1813.581421,1642.104980   C1816.173340,1640.362915 1817.997437,1637.302734 1819.802368,1634.603027   C1823.268188,1629.419067 1826.211182,1623.874146 1829.831177,1618.807861   C1835.419189,1610.987549 1842.249023,1604.059204 1844.882812,1594.323608   C1846.431030,1588.600586 1848.621704,1582.977173 1851.166504,1577.614258   C1855.607544,1568.255371 1860.060425,1558.978149 1861.257202,1548.503052   C1862.315186,1539.242432 1863.873779,1530.026367 1864.582886,1520.742554   C1865.163574,1513.142090 1865.383179,1505.424805 1864.762817,1497.841064   C1863.596558,1483.587036 1860.857178,1469.424438 1860.314575,1455.165161   C1859.446289,1432.346802 1855.862549,1409.850952 1849.131714,1388.367065   C1842.580688,1367.457764 1836.184692,1346.488892 1829.563843,1325.597412   C1823.042603,1305.020630 1811.751099,1286.922119 1795.183350,1272.558105   C1788.899902,1267.110352 1782.626099,1261.650024 1776.261108,1256.298462   C1766.495117,1248.087402 1755.963135,1240.968018 1743.636597,1237.352295   C1729.935303,1233.333496 1716.029785,1230.000977 1702.170654,1226.540161   C1699.623779,1225.904297 1696.874878,1226.062134 1694.216919,1225.888672   C1674.479614,1224.600342 1655.004639,1227.259521 1635.465088,1229.479858   C1602.986084,1233.170776 1572.979614,1242.555664 1548.050537,1264.853516   C1540.370605,1271.723022 1530.951538,1277.056152 1524.612183,1284.931030   C1511.672241,1301.005737 1500.695068,1318.640747 1493.898193,1338.333252   C1482.823608,1370.419434 1478.324097,1403.610107 1478.064087,1437.499878   C1477.961914,1450.796509 1477.841797,1464.240479 1475.845459,1477.329834   C1474.140137,1488.512451 1474.318359,1499.217163 1477.091919,1509.939819   C1480.342773,1522.508301 1484.066772,1534.954468 1488.059326,1548.961914  z"
   id="path2"
   style="fill:#c6c6d0;fill-opacity:1" />&#10;<path
   fill="#5D5D5D"
   opacity="1.000000"
   stroke="none"
   d=" M1425.102295,2236.864014   C1432.473755,2251.413330 1439.536987,2266.129639 1447.296875,2280.468750   C1456.327393,2297.155762 1465.361816,2313.898926 1475.556763,2329.876465   C1482.324341,2340.482422 1491.109985,2349.804688 1499.028687,2359.672119   C1524.262207,2391.116211 1550.614746,2421.586426 1577.836670,2451.333984   C1596.825928,2472.085449 1619.737915,2487.122803 1644.385376,2500.050293   C1661.490479,2509.021729 1678.559937,2518.125732 1695.128662,2528.034424   C1707.669556,2535.534668 1721.112061,2542.731934 1731.102661,2553.025146   C1748.582886,2571.035156 1771.503174,2578.184082 1792.829346,2588.571045   C1803.865479,2593.945801 1815.784424,2597.520020 1827.340210,2601.811523   C1836.988525,2605.395264 1846.401123,2609.282227 1855.656860,2613.987549   C1865.265991,2618.872803 1876.356689,2621.269043 1887.062988,2623.472656   C1903.660034,2626.889160 1920.469116,2629.292236 1937.216309,2631.948730   C1940.566650,2632.479980 1942.634644,2633.767334 1943.659424,2637.120850   C1946.086060,2645.062500 1948.971680,2652.869141 1951.234985,2660.854004   C1952.679565,2665.950195 1953.706177,2671.228027 1954.277588,2676.494141   C1955.242310,2685.385986 1953.503174,2687.769043 1944.458984,2689.358154   C1928.677124,2692.130615 1912.827637,2693.991211 1896.774048,2691.246826   C1892.204956,2690.465820 1887.500366,2690.277344 1882.851318,2690.196777   C1838.219849,2689.419922 1793.587524,2688.229980 1748.954468,2688.186279   C1720.672729,2688.158691 1692.359619,2689.353760 1664.116211,2690.971436   C1641.400513,2692.272217 1618.861328,2691.553955 1596.247192,2689.520508   C1572.359985,2687.372070 1548.409668,2685.919678 1524.485596,2684.184326   C1508.309570,2683.010742 1493.307495,2679.355713 1479.920898,2669.012939   C1463.065552,2655.990479 1444.637085,2644.993164 1427.885376,2631.850342   C1403.800171,2612.953125 1380.339966,2593.228027 1357.147095,2573.236816   C1343.034058,2561.071777 1329.740356,2547.928467 1316.494629,2534.804688   C1313.116455,2531.457520 1311.246460,2526.554443 1308.826172,2522.285645   C1307.201294,2519.419678 1305.971313,2516.327393 1304.314575,2513.482178   C1299.299072,2504.869141 1294.066895,2496.381592 1289.090698,2487.746582   C1276.449097,2465.809082 1263.614258,2443.976074 1251.406372,2421.798828   C1241.616943,2404.015137 1231.405518,2386.302979 1223.572021,2367.639648   C1210.920288,2337.497314 1196.748901,2308.148682 1182.484619,2278.773193   C1172.905273,2259.045166 1165.310059,2238.326416 1157.333374,2217.854004   C1147.049194,2191.459473 1137.553345,2164.786621 1130.850220,2137.189209   C1125.614746,2115.633301 1123.501831,2093.840332 1125.326538,2071.748291   C1127.107178,2050.188721 1129.091553,2028.641846 1131.345215,2007.126953   C1133.342041,1988.063599 1143.190186,1971.942871 1151.551758,1955.282959   C1153.929443,1950.545776 1157.980835,1949.958862 1162.456177,1949.990356   C1180.780151,1950.119507 1199.103760,1950.293579 1217.427612,1950.428833   C1225.972778,1950.491943 1234.786499,1952.135864 1242.019897,1945.297363   C1243.241455,1944.142578 1245.800049,1944.115601 1247.753784,1944.064819   C1274.723267,1943.365112 1301.692139,1942.464233 1328.666992,1942.190796   C1362.899780,1941.843750 1393.876831,1954.043701 1424.310791,1968.036255   C1431.429688,1971.309204 1436.163940,1977.138794 1438.666992,1984.039185   C1446.116333,2004.575562 1458.850342,2021.298706 1473.912964,2036.703613   C1480.176270,2043.109253 1485.343994,2050.580566 1491.075684,2057.512939   C1522.263916,2095.233887 1554.976562,2131.665039 1584.570190,2170.745361   C1603.251343,2195.415283 1623.170410,2219.225830 1643.659424,2242.427979   C1667.238647,2269.129883 1691.628540,2295.156494 1716.525879,2320.636475   C1728.569458,2332.962158 1742.492554,2343.468994 1755.726929,2354.606934   C1765.409790,2362.756104 1775.265381,2370.707520 1785.204712,2378.543213   C1808.231934,2396.696777 1833.125977,2411.220947 1862.439087,2416.505859   C1869.278687,2417.738770 1876.347168,2417.700684 1883.309692,2418.254150   C1904.212524,2419.916016 1925.147339,2421.261963 1946.005371,2423.368408   C1957.950439,2424.574951 1960.864258,2428.134521 1961.183105,2440.092041   C1961.341919,2446.052734 1960.729980,2452.083008 1959.941528,2458.011719   C1955.419800,2492.019043 1951.115601,2526.063721 1945.863770,2559.960205   C1944.464966,2568.989014 1940.211548,2577.624512 1936.872925,2586.288086   C1934.228882,2593.149658 1928.699219,2596.754639 1921.459106,2597.257812   C1895.077637,2599.091797 1870.015137,2596.239014 1846.546997,2581.828613   C1811.353027,2560.218750 1775.726685,2539.210449 1739.413696,2519.554688   C1702.163574,2499.391602 1669.408569,2473.409180 1637.340332,2446.260742   C1630.729736,2440.664307 1624.023071,2435.176025 1617.546509,2429.428467   C1595.632568,2409.980957 1573.989746,2390.223389 1551.865967,2371.019043   C1539.550903,2360.328857 1526.757568,2350.140625 1513.702637,2340.363525   C1489.684082,2322.374512 1469.739868,2300.699219 1453.212158,2275.765137   C1444.562012,2262.715332 1435.949951,2249.640381 1426.598877,2235.564697   C1424.582642,2233.038086 1423.288086,2231.523438 1421.748291,2229.579102   C1421.078491,2228.613281 1420.541016,2228.240723 1419.888916,2227.924316   C1419.887573,2227.817383 1419.718384,2227.512695 1419.718384,2227.512695   C1419.718384,2227.512695 1420.010986,2227.916260 1420.255615,2228.344971   C1420.872681,2229.342773 1421.376587,2229.749268 1422.045654,2230.639404   C1423.087280,2233.145264 1424.094849,2235.004639 1425.102295,2236.864014  z"
   id="path3"
   style="fill:#c6c6d0;fill-opacity:1" />&#10;<path
   fill="#5D5D5D"
   opacity="1.000000"
   stroke="none"
   d=" M1092.029419,2685.989746   C1075.529907,2668.735596 1056.679077,2653.749023 1043.984375,2632.869385   C1034.479492,2617.236084 1023.787231,2602.274658 1012.922668,2587.530518   C998.930176,2568.541748 990.174438,2546.892090 980.153992,2525.869873   C967.459473,2499.238037 958.742737,2471.393311 954.324158,2442.148926   C952.685730,2431.304932 949.278748,2420.738525 947.306030,2409.930908   C945.947876,2402.490479 945.673096,2394.852539 944.905212,2387.303711   C944.804688,2386.315918 944.850647,2385.253418 944.492554,2384.360352   C937.374146,2366.609863 937.718811,2347.722656 936.959839,2329.205078   C935.405029,2291.271729 935.033997,2253.290283 934.135437,2215.329834   C933.707825,2197.264160 939.136536,2180.598633 945.645325,2164.044922   C957.288513,2134.433594 973.015381,2106.985107 989.738159,2080.100098   C1004.152405,2056.926514 1019.060547,2034.047241 1034.246094,2011.369751   C1048.479614,1990.114380 1070.686401,1979.720093 1093.367188,1970.607056   C1097.378296,1968.995361 1102.891479,1971.121704 1107.409790,1971.496948   C1111.189575,1976.563232 1110.203369,1981.654907 1109.582642,1986.478638   C1107.499512,2002.666992 1105.085083,2018.812500 1102.904663,2034.988892   C1102.328247,2039.265259 1101.812744,2043.594727 1101.823730,2047.898315   C1101.884766,2071.891357 1101.699951,2095.895752 1102.401489,2119.873047   C1103.167358,2146.040039 1109.095703,2171.351562 1117.192505,2196.160645   C1129.020996,2232.404053 1144.827393,2266.969482 1163.950806,2299.821777   C1173.766602,2316.684570 1180.987061,2334.412109 1188.205078,2352.319580   C1205.464844,2395.139160 1228.371216,2434.921143 1253.281860,2473.679199   C1267.507935,2495.813232 1281.667603,2518.083008 1294.183716,2541.197998   C1308.162476,2567.014648 1327.142456,2588.725098 1346.805420,2609.892090   C1362.641357,2626.939209 1379.630371,2642.957520 1396.694946,2658.799561   C1403.190186,2664.829346 1411.093872,2669.480713 1418.776855,2674.052002   C1425.940186,2678.314941 1432.510498,2682.930664 1437.553101,2689.626709   C1434.283569,2694.548584 1430.136719,2693.867188 1426.257690,2693.618408   C1402.658325,2692.107422 1379.077026,2690.245117 1355.460693,2689.099121   C1346.531250,2688.665771 1337.413452,2689.086182 1328.575806,2690.412842   C1309.524292,2693.272461 1290.660522,2690.455322 1271.728149,2689.670410   C1249.775146,2688.760254 1227.839111,2687.208496 1205.878906,2686.756348   C1176.563232,2686.152832 1147.231201,2686.339355 1116.054077,2686.075684   C1106.811035,2685.973145 1099.420288,2685.981201 1092.029419,2685.989746  z"
   id="path4"
   style="fill:#c6c6d0;fill-opacity:1" />&#10;<path
   fill="#5D5D5D"
   opacity="1.000000"
   stroke="none"
   d=" M1556.124023,1958.218506   C1567.969482,1955.441772 1578.936890,1952.655396 1589.986450,1950.246094   C1594.490234,1949.264038 1599.238281,1948.313965 1603.763428,1948.690674   C1637.765503,1951.522095 1671.667358,1949.608032 1705.553955,1946.959351   C1723.481567,1945.557983 1741.352661,1943.199829 1759.299683,1942.391724   C1767.067261,1942.041992 1775.203369,1943.689087 1782.745483,1945.890503   C1795.842407,1949.713501 1808.547852,1954.662598 1818.990234,1964.133057   C1824.819336,1969.419800 1829.023682,1975.519775 1831.905640,1982.804565   C1837.173340,1996.119507 1842.156860,2009.596924 1848.331421,2022.492920   C1860.834717,2048.606201 1874.074707,2074.366211 1886.960449,2100.296875   C1889.181885,2104.767090 1891.330444,2109.289062 1893.212646,2113.909424   C1901.743774,2134.851318 1910.180664,2155.831543 1918.615112,2176.812744   C1919.856079,2179.900146 1921.187866,2182.993896 1921.995728,2186.206055   C1933.074463,2230.255859 1941.826050,2274.567627 1937.718872,2320.425537   C1936.658081,2332.270264 1933.261475,2343.194336 1927.552490,2353.561035   C1924.359741,2359.358398 1921.636963,2365.415527 1918.730713,2371.368896   C1918.294189,2372.262939 1918.031860,2373.240723 1917.659424,2374.167725   C1909.522827,2394.415527 1899.318970,2399.857910 1878.484619,2392.654297   C1855.395508,2384.671143 1833.911743,2373.730957 1816.426636,2355.676025   C1804.649780,2343.515869 1790.860840,2333.325684 1778.777832,2321.435059   C1762.895996,2305.805908 1747.856689,2289.323242 1732.360840,2273.298828   C1717.778076,2258.218506 1703.042114,2243.286133 1688.429321,2228.234375   C1668.483887,2207.690186 1648.374756,2187.297607 1628.773926,2166.428711   C1619.906372,2156.987793 1612.403931,2146.275391 1603.706299,2136.660889   C1596.581909,2128.785400 1588.959717,2121.270508 1580.925293,2114.328125   C1567.073364,2102.358643 1552.471313,2091.255859 1538.650513,2079.251953   C1515.444946,2059.097656 1497.849854,2034.616577 1484.789429,2006.854004   C1481.387695,1999.623047 1477.997070,1992.365967 1475.083618,1984.931763   C1471.705811,1976.312378 1473.545410,1972.627319 1482.416138,1970.044067   C1488.150513,1968.374146 1494.042236,1967.084106 1499.949585,1966.198975   C1518.370728,1963.438965 1536.832886,1960.952759 1556.124023,1958.218506  z"
   id="path5"
   style="fill:#c6c6d0;fill-opacity:1" />&#10;<path
   fill="#5D5D5D"
   opacity="1.000000"
   stroke="none"
   d=" M1988.045410,1854.048340   C1997.723755,1846.798584 2002.755615,1836.987427 2008.056885,1827.330078   C2017.674072,1809.810425 2027.550049,1792.432007 2037.057861,1774.853760   C2039.734497,1769.904907 2041.505249,1764.466064 2043.690430,1759.251343   C2052.245361,1738.835327 2071.984375,1733.584351 2088.897705,1748.172241   C2097.383789,1755.491943 2104.828857,1764.284546 2111.575684,1773.287109   C2119.752686,1784.198608 2127.142090,1795.771240 2134.091064,1807.519897   C2161.795166,1854.357910 2194.910889,1897.495239 2225.794189,1942.153564   C2236.598877,1957.777466 2249.227051,1971.968140 2262.706299,1985.441162   C2268.277832,1991.010132 2273.272461,1997.597290 2276.909424,2004.566650   C2283.868408,2017.901611 2279.742920,2032.318604 2267.249756,2040.514648   C2248.624023,2052.733887 2230.186768,2065.330322 2210.903564,2076.436768   C2183.773926,2092.062256 2155.832031,2106.270996 2128.448975,2121.466309   C2109.229492,2132.131348 2088.449951,2137.797852 2067.208984,2142.405029   C2057.456787,2144.520264 2047.894043,2147.510010 2038.141113,2149.621094   C2026.451660,2152.151123 2014.663330,2154.233398 2002.895142,2156.386475   C1989.802734,2158.782227 1976.677490,2160.999023 1963.583252,2163.385254   C1960.311279,2163.981445 1957.118530,2164.999756 1953.862305,2165.697510   C1949.204224,2166.694580 1945.967041,2164.862061 1944.601807,2160.330078   C1941.049072,2148.538818 1936.671265,2136.889160 1934.371216,2124.848877   C1929.163696,2097.590820 1922.154053,2070.888916 1912.302979,2044.977173   C1903.380493,2021.508057 1888.112671,2002.182617 1871.118652,1984.107178   C1867.238647,1979.980347 1862.961792,1976.214966 1859.219116,1971.972900   C1849.234375,1960.656006 1852.995605,1945.114868 1867.444824,1940.924072   C1884.909790,1935.858643 1900.194702,1926.182739 1916.429688,1918.675415   C1930.136841,1912.337036 1942.206299,1902.230225 1954.435669,1893.039551   C1959.077759,1889.550903 1962.058472,1883.890869 1965.942261,1879.345215   C1973.064941,1871.008667 1980.295532,1862.764404 1988.045410,1854.048340  z"
   id="path6"
   style="fill:#c6c6d0;fill-opacity:1" />&#10;<path
   fill="#5D5D5D"
   opacity="1.000000"
   stroke="none"
   d=" M908.304993,2317.992676   C909.213989,2339.635986 910.582703,2361.174561 915.123596,2382.495117   C920.664124,2408.508789 925.187439,2434.738770 930.213745,2460.863037   C930.968140,2464.783691 931.766296,2468.740967 933.052002,2472.508057   C945.317566,2508.445801 957.620850,2544.371094 970.075073,2580.243896   C974.444946,2592.831055 978.864563,2605.430176 984.034851,2617.698242   C986.842712,2624.360596 991.104797,2630.447021 995.018372,2636.597412   C999.999634,2644.425049 1005.107849,2652.187500 1010.532654,2659.710449   C1013.026001,2663.167969 1016.510864,2665.893799 1019.350159,2669.123779   C1022.183044,2672.346191 1025.308350,2675.491699 1027.328125,2679.202881   C1029.760498,2683.671875 1027.594604,2688.289551 1022.534912,2689.058838   C1018.075378,2689.736572 1012.752380,2690.100830 1008.916199,2688.277588   C1002.895081,2685.415527 996.846558,2684.872314 990.548218,2684.464844   C979.582703,2683.755615 968.615845,2682.357910 957.657471,2682.431396   C944.722473,2682.518066 931.799805,2683.933105 918.863770,2684.620361   C913.884094,2684.885254 908.881714,2684.698730 903.890686,2684.779053   C884.566223,2685.089355 873.173401,2674.980713 865.272278,2657.946045   C856.796692,2639.673340 853.523010,2620.645264 851.930237,2600.922363   C850.322083,2581.009033 847.288696,2561.191162 846.206726,2541.259277   C844.474548,2509.349121 843.101807,2477.382812 842.961121,2445.434082   C842.839417,2417.795166 844.217957,2390.124756 845.734131,2362.511963   C846.865662,2341.903320 849.148315,2321.352783 851.158508,2300.799561   C852.471619,2287.373291 857.435120,2275.026123 862.676208,2262.692139   C870.303711,2244.742920 881.733887,2229.273682 893.167175,2213.768066   C895.120728,2211.118652 897.435974,2208.558594 900.074707,2206.627441   C906.098572,2202.219238 914.602966,2203.289551 918.908020,2209.204102   C920.211365,2210.994629 920.453796,2214.302734 919.880188,2216.589111   C916.888977,2228.511719 913.492310,2240.333008 910.209351,2252.181885   C906.975586,2263.853271 905.671814,2275.702637 906.688843,2289.628174   C907.138245,2300.309570 907.721619,2309.151123 908.304993,2317.992676  z"
   id="path7"
   style="fill:#c6c6d0;fill-opacity:1" />&#10;<path
   fill="#5D5D5D"
   opacity="1.000000"
   stroke="none"
   d=" M2348.841553,1615.307251   C2348.102783,1618.914062 2347.838867,1622.594360 2345.886230,1624.732178   C2320.761230,1652.238403 2295.940186,1680.058228 2269.877197,1706.657349   C2255.255127,1721.580200 2238.504639,1734.422363 2222.662842,1748.144165   C2207.081787,1761.640015 2191.488525,1775.123047 2175.800293,1788.493896   C2167.019531,1795.977539 2165.931396,1795.734619 2158.488770,1786.451294   C2143.292480,1767.496948 2128.111084,1748.530884 2112.834961,1729.641113   C2110.122314,1726.286377 2107.027588,1723.233398 2104.031006,1720.116455   C2094.467773,1710.169312 2092.776367,1699.269287 2100.445557,1687.591064   C2105.707520,1679.578613 2111.901855,1671.995239 2118.636963,1665.164307   C2151.594238,1631.738159 2185.469238,1599.272095 2222.027344,1569.739380   C2227.460205,1565.350708 2233.324463,1561.499023 2238.799316,1557.159546   C2247.386475,1550.352783 2256.001465,1543.558838 2264.255615,1536.359375   C2273.459961,1528.331299 2275.755859,1528.577759 2283.402344,1537.713623   C2304.970215,1563.482300 2326.803223,1589.029297 2348.841553,1615.307251  z"
   id="path8"
   style="fill:#c6c6d0;fill-opacity:1" />&#10;<path
   fill="#404043"
   opacity="1.000000"
   stroke="none"
   d=" M908.589478,2317.229492   C907.721619,2309.151123 907.138245,2300.309570 906.712158,2290.522461   C911.606201,2298.236572 910.518860,2307.330566 908.589478,2317.229492  z"
   id="path9"
   style="fill:#c6c6d0;fill-opacity:1" />&#10;<path
   fill="#404043"
   opacity="1.000000"
   stroke="none"
   d=" M1092.795166,2686.205566   C1099.420288,2685.981201 1106.811035,2685.973145 1115.119019,2686.069824   C1108.544312,2686.256836 1101.052612,2686.339111 1092.795166,2686.205566  z"
   id="path10"
   style="fill:#c6c6d0;fill-opacity:1" />&#10;<path
   fill="#404043"
   opacity="1.000000"
   stroke="none"
   d=" M1595.146851,942.054321   C1591.156738,942.287109 1586.279297,942.415894 1580.687622,942.357239   C1584.735352,942.096680 1589.497559,942.023560 1595.146851,942.054321  z"
   id="path11"
   style="fill:#c6c6d0;fill-opacity:1" />&#10;<path
   fill="#404043"
   opacity="1.000000"
   stroke="none"
   d=" M1663.864258,943.550232   C1663.751465,943.664062 1663.371826,943.648804 1662.428467,943.554321   C1662.436157,943.261353 1663.013672,943.243347 1663.864258,943.550232  z"
   id="path12"
   style="fill:#c6c6d0;fill-opacity:1" />&#10;<path
   fill="#232429"
   opacity="1.000000"
   stroke="none"
   d=" M1274.774170,1610.624268   C1253.049194,1646.434814 1224.314941,1671.130859 1182.360107,1678.531494   C1159.193604,1682.617920 1135.918579,1682.764893 1112.646729,1682.982300   C1094.693604,1683.150269 1076.630859,1682.291016 1058.778564,1680.378662   C1018.895508,1676.106201 985.122986,1658.699097 956.337097,1630.898926   C920.693970,1596.476196 900.354004,1554.417603 892.585876,1505.870361   C892.270508,1503.899536 892.009033,1501.899292 891.971313,1499.908081   C891.428711,1471.255493 889.874573,1442.570435 890.734741,1413.958496   C891.495544,1388.649292 900.403442,1365.138184 912.362305,1342.829224   C918.480591,1331.415527 923.809998,1319.580078 929.869019,1308.132812   C933.751648,1300.797241 938.329529,1293.830566 942.569275,1286.682983   C947.485596,1278.394531 952.795776,1270.306274 957.191345,1261.749023   C969.077454,1238.609253 988.019470,1227.587891 1013.759583,1227.727173   C1042.495728,1227.882690 1071.140015,1229.703003 1098.967773,1237.197510   C1119.005859,1242.594360 1137.558716,1251.964722 1154.942383,1263.276489   C1171.394653,1273.981934 1187.668213,1285.004150 1203.543457,1296.543335   C1224.303101,1311.632812 1240.971802,1330.381592 1252.711182,1353.483154   C1260.246582,1368.311646 1268.772461,1382.635132 1276.764893,1397.233765   C1279.841187,1402.853027 1281.605347,1408.700317 1281.200806,1415.383545   C1280.947876,1419.560791 1282.277588,1423.938599 1283.437622,1428.074829   C1285.866455,1436.734375 1288.379395,1445.389282 1291.345337,1453.875610   C1298.900635,1475.493896 1299.565063,1497.601318 1296.593872,1520.012451   C1294.929688,1532.563965 1293.111694,1545.094971 1291.396484,1557.639893   C1288.887207,1575.991577 1282.392212,1593.097656 1274.774170,1610.624268  z"
   id="path13" />&#10;<path
   fill="#232429"
   opacity="1.000000"
   stroke="none"
   d=" M1487.822388,1548.207764   C1484.066772,1534.954468 1480.342773,1522.508301 1477.091919,1509.939819   C1474.318359,1499.217163 1474.140137,1488.512451 1475.845459,1477.329834   C1477.841797,1464.240479 1477.961914,1450.796509 1478.064087,1437.499878   C1478.324097,1403.610107 1482.823608,1370.419434 1493.898193,1338.333252   C1500.695068,1318.640747 1511.672241,1301.005737 1524.612183,1284.931030   C1530.951538,1277.056152 1540.370605,1271.723022 1548.050537,1264.853516   C1572.979614,1242.555664 1602.986084,1233.170776 1635.465088,1229.479858   C1655.004639,1227.259521 1674.479614,1224.600342 1694.216919,1225.888672   C1696.874878,1226.062134 1699.623779,1225.904297 1702.170654,1226.540161   C1716.029785,1230.000977 1729.935303,1233.333496 1743.636597,1237.352295   C1755.963135,1240.968018 1766.495117,1248.087402 1776.261108,1256.298462   C1782.626099,1261.650024 1788.899902,1267.110352 1795.183350,1272.558105   C1811.751099,1286.922119 1823.042603,1305.020630 1829.563843,1325.597412   C1836.184692,1346.488892 1842.580688,1367.457764 1849.131714,1388.367065   C1855.862549,1409.850952 1859.446289,1432.346802 1860.314575,1455.165161   C1860.857178,1469.424438 1863.596558,1483.587036 1864.762817,1497.841064   C1865.383179,1505.424805 1865.163574,1513.142090 1864.582886,1520.742554   C1863.873779,1530.026367 1862.315186,1539.242432 1861.257202,1548.503052   C1860.060425,1558.978149 1855.607544,1568.255371 1851.166504,1577.614258   C1848.621704,1582.977173 1846.431030,1588.600586 1844.882812,1594.323608   C1842.249023,1604.059204 1835.419189,1610.987549 1829.831177,1618.807861   C1826.211182,1623.874146 1823.268188,1629.419067 1819.802368,1634.603027   C1817.997437,1637.302734 1816.173340,1640.362915 1813.581421,1642.104980   C1788.788208,1658.771362 1762.652222,1672.474121 1732.650635,1677.146362   C1730.029663,1677.554321 1727.145508,1678.346558 1724.736084,1677.682373   C1714.416748,1674.837402 1704.212402,1677.803589 1693.996460,1677.594849   C1682.763184,1677.365601 1671.433716,1676.196411 1660.385742,1674.145508   C1649.616821,1672.146362 1639.164917,1668.463013 1628.548706,1665.612183   C1606.062744,1659.573975 1585.789551,1649.111694 1566.869873,1635.647217   C1559.596924,1630.471436 1551.890381,1625.658325 1543.810425,1621.911255   C1522.859985,1612.195801 1508.005493,1596.704224 1498.553589,1575.952148   C1494.558838,1567.181641 1491.528198,1557.972046 1487.822388,1548.207764  z"
   id="path14" />&#10;<path
   fill="#232429"
   opacity="1.000000"
   stroke="none"
   d=" M1425.406738,2236.570801   C1424.094849,2235.004639 1423.087280,2233.145264 1422.039795,2230.643066   C1422.000000,2230.000000 1421.993652,2230.009033 1421.993652,2230.009033   C1423.288086,2231.523438 1424.582642,2233.038086 1426.094971,2235.118652   C1426.312744,2235.684814 1425.710938,2236.277832 1425.406738,2236.570801  z"
   id="path15"
   style="fill:#c6c6d0;fill-opacity:1" />&#10;<path
   fill="#232429"
   opacity="1.000000"
   stroke="none"
   d=" M1420.010986,2227.916260   C1420.010986,2227.916260 1419.718384,2227.512695 1419.718384,2227.512695   C1419.718384,2227.512695 1419.887573,2227.817383 1419.923950,2227.899902   C1419.960327,2227.982422 1420.010986,2227.916260 1420.010986,2227.916260  z"
   id="path16"
   style="fill:#c6c6d0;fill-opacity:1" />&#10;<path
   fill="#232429"
   opacity="1.000000"
   stroke="none"
   d=" M1422.005859,2229.996582   C1421.376587,2229.749268 1420.872681,2229.342773 1420.255615,2228.344971   C1420.010986,2227.916260 1419.960327,2227.982422 1419.925293,2228.006836   C1420.541016,2228.240723 1421.078491,2228.613281 1421.748291,2229.579102   C1421.993652,2230.009033 1422.000000,2230.000000 1422.005859,2229.996582  z"
   id="path17"
   style="fill:#c6c6d0;fill-opacity:1" />&#10;</svg>
